<svg version="1.1"
      xmlns="http://www.w3.org/2000/svg"
      xmlns:xlink="http://www.w3.org/1999/xlink"  id="snapshot-74648" width="250" height="250" viewBox="0 0 250 250"><desc>This image was made on Patterninja.com</desc><defs>
<!-- image 85646 -->
<g id="transformed-85646" data-image="85646" transform="translate(-18.601075237738275, -18.601075237738268) rotate(36, 18.601075237738275, 18.601075237738268)"><g><svg version="1.1" width="37.20215047547655px" height="37.202150475476536px" viewBox="0 0 37.20215047547655 37.202150475476536"><g id="original-85646"><svg xmlns="http://www.w3.org/2000/svg" viewBox="0 0 126.334 126.334" xmlns:xlink="http://www.w3.org/1999/xlink" version="1.1" preserveAspectRatio="xMidYMid meet">
  <circle cx="63.167" cy="63.166" r="61.667" fill="rgba(255, 26, 26, 1)" stroke="none"/>
  <ellipse cx="63.167" cy="63.166" rx="61.667" ry="47.232" fill="rgba(214, 9, 9, 1)" stroke="none"/>
  <path d="M1.5 63.166c0 34.061 27.609 61.668 61.667 61.668s61.667-27.607 61.667-61.668H1.5z" fill="rgba(255, 255, 255, 1)" stroke="none"/>
  <path d="M63.167 110.398c34.058 0 61.667-21.148 61.667-47.232H1.5c0 26.084 27.609 47.232 61.667 47.232z" fill="rgba(216, 229, 234, 1)" stroke="none"/>
  <path d="M63.167 0C28.336 0 0 28.336 0 63.166c0 34.831 28.336 63.168 63.167 63.168s63.167-28.337 63.167-63.168C126.334 28.336 97.998 0 63.167 0zm0 3c32.673 0 59.328 26.183 60.129 58.666H3.038C3.839 29.183 30.494 3 63.167 3zm0 120.334c-32.673 0-59.328-26.184-60.129-58.668h120.258c-.801 32.484-27.456 58.668-60.129 58.668z" fill="rgba(51, 54, 58, 1)" stroke="none"/>
  <circle cx="63.167" cy="68.868" r="16.764" fill="rgba(167, 187, 193, 1)" stroke="none"/>
  <circle cx="63.167" cy="63.167" r="16.764" fill="rgba(255, 255, 255, 1)" stroke="none"/>
  <path d="M51.313 75.021c-6.547-6.547-6.546-17.16 0-23.709 6.547-6.546 17.161-6.546 23.707 0" fill="rgba(216, 229, 234, 1)" stroke="none"/>
  <path d="M63.167 81.432c-4.878 0-9.465-1.9-12.915-5.35-7.12-7.12-7.12-18.707 0-25.83 7.122-7.12 18.708-7.12 25.829 0a18.15 18.15 0 0 1 5.351 12.916c0 4.878-1.9 9.465-5.351 12.915a18.143 18.143 0 0 1-12.914 5.349zm0-33.522a15.214 15.214 0 0 0-10.793 4.463c-5.95 5.953-5.95 15.637 0 21.588a15.164 15.164 0 0 0 10.793 4.471 15.16 15.16 0 0 0 10.792-4.471 15.165 15.165 0 0 0 4.472-10.793c0-4.077-1.588-7.91-4.472-10.794a15.21 15.21 0 0 0-10.792-4.464z" fill="rgba(51, 54, 58, 1)" stroke="none"/>
  <path d="M68.871 68.87c-3.149 3.146-8.257 3.146-11.404 0a8.064 8.064 0 1 1 11.404 0z" fill="rgba(255, 255, 255, 1)" stroke="none"/>
  <path d="M57.467 57.467A8.063 8.063 0 0 1 68.871 68.87" fill="rgba(216, 229, 234, 1)" stroke="none"/>
  <path d="M63.168 72.725a9.534 9.534 0 0 1-6.762-2.794c-3.729-3.73-3.729-9.797 0-13.525a9.494 9.494 0 0 1 6.761-2.802c2.555 0 4.957.996 6.763 2.802 3.728 3.727 3.728 9.794.001 13.524l-.001.001a9.535 9.535 0 0 1-6.762 2.794zm-.001-16.121a6.516 6.516 0 0 0-4.64 1.923 6.57 6.57 0 0 0 0 9.282c2.558 2.557 6.723 2.557 9.283 0a6.573 6.573 0 0 0-.001-9.282 6.528 6.528 0 0 0-4.642-1.923z" fill="rgba(51, 54, 58, 1)" stroke="none"/>
</svg>
</g></svg></g></g>
<!-- /image 85646 -->

<!-- image 93748 -->
<g id="transformed-93748" data-image="93748" transform="translate(108.98000799360639, 102.98000799360639) rotate(357, 25.0199920063936, 25.019992006393608)"><g><svg version="1.1" width="50.0399840127872px" height="50.039984012787215px" viewBox="0 0 50.0399840127872 50.039984012787215"><g id="original-93748"><svg xmlns="http://www.w3.org/2000/svg" viewBox="0 0 128.194 128.194" xmlns:xlink="http://www.w3.org/1999/xlink" version="1.1" preserveAspectRatio="xMidYMid meet">
  <path d="M23.82 22.61a30.54 30.54 0 0 0 13.298 16.404 30.547 30.547 0 0 0 .471-21.113A30.553 30.553 0 0 0 24.289 1.5a30.533 30.533 0 0 0-.469 21.11z" fill="rgba(255, 191, 49, 1)" stroke="none"/>
  <path d="M75.773 22.61a30.542 30.542 0 0 1-13.299 16.404 30.547 30.547 0 0 1-.47-21.113A30.556 30.556 0 0 1 75.303 1.5a30.539 30.539 0 0 1 .47 21.11z" fill="rgba(255, 191, 49, 1)" stroke="none"/>
  <path d="M24.289 9.548a30.792 30.792 0 0 0-1.852 7.172 30.74 30.74 0 0 0 1.382 5.891 30.54 30.54 0 0 0 13.298 16.404 30.839 30.839 0 0 0 1.852-7.173 30.787 30.787 0 0 0-1.381-5.892A30.539 30.539 0 0 0 24.289 9.548z" fill="rgba(255, 139, 0, 1)" stroke="none"/>
  <path d="M62.004 25.95a30.695 30.695 0 0 0-1.381 5.892c.329 2.467.95 4.876 1.851 7.173a30.546 30.546 0 0 0 13.299-16.404 30.722 30.722 0 0 0 1.381-5.893 30.686 30.686 0 0 0-1.85-7.17 30.545 30.545 0 0 0-13.3 16.402z" fill="rgba(255, 139, 0, 1)" stroke="none"/>
  <path d="M39.007 17.416A32.184 32.184 0 0 0 28.876 2.891l-.101-.084c-.327-.264-.659-.52-.997-.771-.075-.056-.149-.115-.225-.17a33.788 33.788 0 0 0-.962-.673c-.092-.062-.181-.128-.273-.189a32.526 32.526 0 0 0-1.259-.793 1.501 1.501 0 0 0-2.165.74 31.38 31.38 0 0 0-.56 1.556c-.045.134-.085.269-.128.404a31.443 31.443 0 0 0-.806 3.02l-.049.218a32.106 32.106 0 0 0-.511 3.33c-.014.143-.025.287-.038.43a31.337 31.337 0 0 0-.12 2.855c0 .187-.004.373 0 .56.01.51.032 1.02.066 1.53l.006.129c.001.017.008.033.01.05.199 2.729.741 5.44 1.638 8.062A32.175 32.175 0 0 0 36.35 40.302a1.503 1.503 0 0 0 1.254.131 1.5 1.5 0 0 0 .911-.872 32.197 32.197 0 0 0 .492-22.145zm-2.669 19.319a29.187 29.187 0 0 1-11.1-14.61 28.703 28.703 0 0 1-1.377-6.403l8.62-4.538c1.542 2.209 2.804 4.62 3.688 7.203a29.195 29.195 0 0 1 .169 18.348z" fill="rgba(51, 54, 58, 1)" stroke="none"/>
  <path d="M78.912 13.335c.004-.201 0-.402 0-.603 0-.352-.003-.704-.014-1.056a32.435 32.435 0 0 0-.106-1.756c-.013-.148-.024-.297-.039-.445a32.317 32.317 0 0 0-.51-3.327l-.047-.213a33.78 33.78 0 0 0-.439-1.793 31.91 31.91 0 0 0-.369-1.238c-.042-.132-.082-.265-.126-.396A32.517 32.517 0 0 0 76.701.95a1.502 1.502 0 0 0-2.165-.74c-.427.255-.846.52-1.259.793-.092.061-.181.126-.272.188-.325.22-.648.443-.964.674-.075.055-.147.112-.222.168-.338.252-.672.508-.999.773l-.101.084a32.171 32.171 0 0 0-10.131 14.525 32.195 32.195 0 0 0 .492 22.146 1.502 1.502 0 0 0 2.165.741 32.178 32.178 0 0 0 13.949-17.207 32.13 32.13 0 0 0 1.637-8.057c.002-.019.01-.036.011-.055.003-.047.003-.094.006-.14.032-.502.054-1.005.064-1.508zm-15.659 23.4a29.205 29.205 0 0 1 .17-18.349 29.095 29.095 0 0 1 3.68-7.207l8.644 4.551a29.063 29.063 0 0 1-1.393 6.395 29.175 29.175 0 0 1-11.101 14.61z" fill="rgba(51, 54, 58, 1)" stroke="none"/>
  <path d="M36.507 124.527a2.168 2.168 0 0 1-2.168 2.167h-3.521a2.167 2.167 0 0 1-2.167-2.167v-4.333c0-1.197.97-2.166 2.167-2.166h3.521c1.197 0 2.168.969 2.168 2.166v4.333z" fill="rgba(255, 139, 0, 1)" stroke="none"/>
  <path d="M70.942 124.527c0 1.197-.97 2.167-2.167 2.167h-3.521a2.168 2.168 0 0 1-2.168-2.167v-4.333c0-1.197.971-2.166 2.168-2.166h3.521c1.197 0 2.167.969 2.167 2.166v4.333z" fill="rgba(255, 139, 0, 1)" stroke="none"/>
  <path d="M34.339 128.194h-3.521a3.671 3.671 0 0 1-3.667-3.667v-4.333a3.67 3.67 0 0 1 3.667-3.666h3.521a3.672 3.672 0 0 1 3.668 3.666v4.333a3.671 3.671 0 0 1-3.668 3.667zm-3.521-8.666a.667.667 0 0 0-.667.666v4.333c0 .368.299.667.667.667h3.521a.668.668 0 0 0 .668-.667v-4.333c0-.367-.3-.666-.668-.666h-3.521z" fill="rgba(51, 54, 58, 1)" stroke="none"/>
  <path d="M68.775 128.194h-3.521a3.672 3.672 0 0 1-3.668-3.667v-4.333a3.672 3.672 0 0 1 3.668-3.666h3.521a3.67 3.67 0 0 1 3.667 3.666v4.333a3.671 3.671 0 0 1-3.667 3.667zm-3.522-8.666a.668.668 0 0 0-.668.666v4.333c0 .368.3.667.668.667h3.521a.667.667 0 0 0 .667-.667v-4.333a.667.667 0 0 0-.667-.666h-3.521z" fill="rgba(51, 54, 58, 1)" stroke="none"/>
  <path d="M76.009 94.399V56.305c0-13.422-10.92-24.343-24.341-24.343h-3.745c-13.421 0-24.34 10.921-24.34 24.343v38.094a10.351 10.351 0 0 0-2.767 7.046v8.628c0 5.748 4.658 10.404 10.404 10.404h37.15c5.745 0 10.404-4.656 10.404-10.404v-8.628a10.34 10.34 0 0 0-2.765-7.046z" fill="rgba(255, 191, 49, 1)" stroke="none"/>
  <path d="M76.009 94.399V62.727c0-13.422-10.92-24.342-24.341-24.342h-3.745c-13.421 0-24.34 10.92-24.34 24.342v38.095a10.353 10.353 0 0 0-2.767 7.046v2.205c0 5.748 4.658 10.404 10.404 10.404h37.15c5.745 0 10.404-4.656 10.404-10.404v-2.205c0-2.721-1.055-5.191-2.767-7.046v-6.423z" fill="rgba(255, 139, 0, 1)" stroke="none"/>
  <path d="M68.372 121.977h-37.15c-6.564 0-11.904-5.34-11.904-11.904v-8.628c0-2.79.979-5.469 2.767-7.61v-37.53c0-14.25 11.592-25.843 25.84-25.843h3.745c14.249 0 25.841 11.593 25.841 25.843v37.529a11.849 11.849 0 0 1 2.767 7.61v8.628c-.002 6.565-5.342 11.905-11.906 11.905zM47.923 33.463c-12.594 0-22.84 10.247-22.84 22.843V94.4c0 .377-.143.741-.398 1.018a8.868 8.868 0 0 0-2.368 6.028v8.628c0 4.91 3.994 8.904 8.904 8.904h37.15c4.91 0 8.904-3.995 8.904-8.904v-8.628a8.866 8.866 0 0 0-2.368-6.028 1.499 1.499 0 0 1-.398-1.018V56.305c0-12.596-10.246-22.843-22.841-22.843h-3.745z" fill="rgba(51, 54, 58, 1)" stroke="none"/>
  <path d="M120.298 71.004L92.869 59.331l-26.405 20.09 12.281 5.229L48.7 110.53l58.469-19.869-13.755-5.854z" fill="rgba(255, 191, 49, 1)" stroke="none"/>
  <path d="M86.343 88.301l26.885-13.804-25.841-10.996-20.923 15.92 12.281 5.229L48.7 110.53l49.974-16.98z" fill="rgba(255, 139, 0, 1)" stroke="none"/>
  <path d="M48.7 112.031a1.5 1.5 0 0 1-.482-2.921l54.752-18.606-10.142-4.316a1.5 1.5 0 0 1-.099-2.715l24.037-12.342-23.683-10.078-23.657 17.999 9.907 4.219a1.5 1.5 0 1 1-1.175 2.759l-12.281-5.229a1.498 1.498 0 0 1-.32-2.573l26.404-20.09a1.5 1.5 0 0 1 1.495-.187l27.43 11.673a1.5 1.5 0 0 1 .099 2.715L96.946 84.68l10.811 4.601a1.5 1.5 0 0 1-.105 2.801l-58.47 19.869c-.16.054-.322.08-.482.08z" fill="rgba(51, 54, 58, 1)" stroke="none"/>
  <path d="M41.756 62.66a1.5 1.5 0 0 1-1.061-2.56c5.456-5.458 14.333-5.458 19.791-.002a1.5 1.5 0 1 1-2.121 2.121c-4.286-4.287-11.264-4.285-15.549.002a1.495 1.495 0 0 1-1.06.439z" fill="rgba(51, 54, 58, 1)" stroke="none"/>
  <g>
    <path d="M59.426 74.656c-.384 0-.768-.146-1.061-.439-4.287-4.286-11.262-4.286-15.549 0a1.5 1.5 0 1 1-2.121-2.121c5.457-5.457 14.334-5.457 19.791 0a1.5 1.5 0 0 1-1.06 2.56z" fill="rgba(51, 54, 58, 1)" stroke="none"/>
  </g>
  <g>
    <path d="M32.579 128.194h-7.776a1.5 1.5 0 1 1 0-3h7.776a1.5 1.5 0 1 1 0 3z" fill="rgba(51, 54, 58, 1)" stroke="none"/>
    <path d="M18.368 128.194h-.09a1.5 1.5 0 1 1 0-3c.828 0 1.545.671 1.545 1.5s-.627 1.5-1.455 1.5z" fill="rgba(51, 54, 58, 1)" stroke="none"/>
    <path d="M13.177 128.194h-.09a1.5 1.5 0 1 1 0-3c.828 0 1.545.671 1.545 1.5s-.627 1.5-1.455 1.5z" fill="rgba(51, 54, 58, 1)" stroke="none"/>
    <path d="M7.986 128.194h-.09a1.5 1.5 0 1 1 0-3c.828 0 1.545.671 1.545 1.5s-.627 1.5-1.455 1.5z" fill="rgba(51, 54, 58, 1)" stroke="none"/>
  </g>
</svg>
</g></svg></g></g>
<!-- /image 93748 -->
</defs><rect x="0" y="0" width="250" height="250" fill="rgba(248, 201, 33, 1)"></rect><use xlink:href="#transformed-85646" transform="translate(-250, -250)"></use><use xlink:href="#transformed-85646" transform="translate(0, -250)"></use><use xlink:href="#transformed-85646" transform="translate(250, -250)"></use><use xlink:href="#transformed-85646" transform="translate(-250, 0)"></use><use xlink:href="#transformed-85646" transform="translate(0, 0)"></use><use xlink:href="#transformed-85646" transform="translate(250, 0)"></use><use xlink:href="#transformed-85646" transform="translate(-250, 250)"></use><use xlink:href="#transformed-85646" transform="translate(0, 250)"></use><use xlink:href="#transformed-85646" transform="translate(250, 250)"></use><use xlink:href="#transformed-93748" transform="translate(-250, -250)"></use><use xlink:href="#transformed-93748" transform="translate(0, -250)"></use><use xlink:href="#transformed-93748" transform="translate(250, -250)"></use><use xlink:href="#transformed-93748" transform="translate(-250, 0)"></use><use xlink:href="#transformed-93748" transform="translate(0, 0)"></use><use xlink:href="#transformed-93748" transform="translate(250, 0)"></use><use xlink:href="#transformed-93748" transform="translate(-250, 250)"></use><use xlink:href="#transformed-93748" transform="translate(0, 250)"></use><use xlink:href="#transformed-93748" transform="translate(250, 250)"></use></svg>